<svg width="5" height="7" viewBox="0 0 5 7" fill="none" xmlns="http://www.w3.org/2000/svg">
<path d="M2.57878 3.44131C2.65052 3.44131 2.70741 3.41905 2.75193 3.37205L3.76612 2.35044C3.82054 2.29602 3.84528 2.23665 3.84528 2.16739C3.84528 2.10061 3.81807 2.03629 3.76612 1.98682L2.75193 0.955313C2.70741 0.90584 2.65052 0.881104 2.57878 0.881104C2.4452 0.881104 2.33884 0.992417 2.33884 1.12847C2.33884 1.19526 2.36357 1.24967 2.40563 1.29667L2.99682 1.8755C2.88056 1.85819 2.76183 1.84829 2.64309 1.84829C1.41865 1.84829 0.439087 2.82785 0.439087 4.05478C0.439087 5.2817 1.42607 6.26868 2.65052 6.26868C3.87744 6.26868 4.86194 5.2817 4.86194 4.05478C4.86194 3.90636 4.75805 3.79999 4.60963 3.79999C4.46616 3.79999 4.36969 3.90636 4.36969 4.05478C4.36969 5.0096 3.60534 5.77642 2.65052 5.77642C1.69817 5.77642 0.93134 5.0096 0.93134 4.05478C0.93134 3.09253 1.69075 2.33065 2.64309 2.33065C2.80388 2.33065 2.9523 2.34302 3.0834 2.36528L2.4081 3.03316C2.36357 3.07769 2.33884 3.13211 2.33884 3.1989C2.33884 3.33495 2.4452 3.44131 2.57878 3.44131Z" fill="#E3E3E3"/>
</svg>
