<svg width="42" height="11" viewBox="0 0 42 11" fill="none" xmlns="http://www.w3.org/2000/svg">
<g clip-path="url(#clip0_81_723)">
<path d="M2.52523 9.14869H8.52112C9.28155 9.14869 9.67754 8.7562 9.67754 8.00628V3.74153C9.67754 2.9916 9.28155 2.59912 8.52112 2.59912H2.52523C1.7683 2.59912 1.37231 2.9881 1.37231 3.74153V8.00628C1.37231 8.7562 1.7683 9.14869 2.52523 9.14869ZM2.57079 8.45133C2.24839 8.45133 2.06967 8.28312 2.06967 7.9432V3.80461C2.06967 3.46469 2.24839 3.29648 2.57079 3.29648H4.16876V8.45133H2.57079ZM8.47556 3.29648C8.79796 3.29648 8.97668 3.46469 8.97668 3.80461V7.9432C8.97668 8.28312 8.79796 8.45133 8.47556 8.45133H4.83107V3.29648H8.47556ZM3.48191 4.57906C3.60807 4.57906 3.7132 4.47043 3.7132 4.35128C3.7132 4.23213 3.60807 4.127 3.48191 4.127H2.76353C2.63737 4.127 2.53224 4.23213 2.53224 4.35128C2.53224 4.47043 2.63737 4.57906 2.76353 4.57906H3.48191ZM3.48191 5.52172C3.60807 5.52172 3.7132 5.41659 3.7132 5.29394C3.7132 5.17479 3.60807 5.06966 3.48191 5.06966H2.76353C2.63737 5.06966 2.53224 5.17479 2.53224 5.29394C2.53224 5.41659 2.63737 5.52172 2.76353 5.52172H3.48191ZM3.48191 6.46088C3.60807 6.46088 3.7132 6.35925 3.7132 6.2366C3.7132 6.11745 3.60807 6.01583 3.48191 6.01583H2.76353C2.63737 6.01583 2.53224 6.11745 2.53224 6.2366C2.53224 6.35925 2.63737 6.46088 2.76353 6.46088H3.48191Z" fill="#B7B7B7"/>
<path d="M23.0711 8.54889L20.5051 6.03898C20.416 5.94992 20.3699 5.85098 20.3699 5.73554C20.3699 5.62011 20.416 5.51456 20.5084 5.42881L23.0744 2.9222C23.1469 2.84964 23.2393 2.81006 23.3448 2.81006C23.5658 2.81006 23.7373 2.98156 23.7373 3.19924C23.7373 3.30479 23.6944 3.40703 23.6186 3.48289L21.3099 5.73224L23.6186 7.9882C23.6944 8.06406 23.7373 8.163 23.7373 8.27184C23.7373 8.48952 23.5658 8.66103 23.3448 8.66103C23.2393 8.66103 23.1469 8.62145 23.0711 8.54889Z" fill="#B7B7B7"/>
<path d="M35.7493 8.66103C35.8581 8.66103 35.9472 8.62145 36.023 8.54889L38.589 6.04227C38.6781 5.94992 38.7243 5.85428 38.7243 5.73554C38.7243 5.62011 38.6814 5.51786 38.589 5.43211L36.023 2.9222C35.9472 2.84964 35.8581 2.81006 35.7493 2.81006C35.5283 2.81006 35.3568 2.98156 35.3568 3.19924C35.3568 3.30479 35.403 3.40703 35.4755 3.48289L37.7876 5.73884L35.4755 7.9882C35.3997 8.06736 35.3568 8.163 35.3568 8.27184C35.3568 8.48952 35.5283 8.66103 35.7493 8.66103Z" fill="#5A5A5A"/>
</g>
<defs>
<clipPath id="clip0_81_723">
<rect width="41.3724" height="10.132" fill="white" transform="translate(0.528076 0.488281)"/>
</clipPath>
</defs>
</svg>
