<svg width="42" height="11" viewBox="0 0 42 11" fill="none" xmlns="http://www.w3.org/2000/svg">
<g clip-path="url(#clip0_81_716)">
<path d="M5.78682 6.55626C5.96525 6.55626 6.11219 6.40921 6.11219 6.23415V2.71198L6.0877 2.19381L6.30111 2.44939L6.79092 2.97107C6.8469 3.03409 6.92737 3.0656 7.00783 3.0656C7.16877 3.0656 7.30172 2.95006 7.30172 2.7855C7.30172 2.69797 7.26673 2.63495 7.20726 2.57543L6.03522 1.44456C5.95125 1.36053 5.87078 1.33252 5.78682 1.33252C5.69935 1.33252 5.62238 1.36053 5.53841 1.44456L4.36288 2.57543C4.3034 2.63495 4.26841 2.69797 4.26841 2.7855C4.26841 2.95006 4.39786 3.0656 4.5588 3.0656C4.63927 3.0656 4.72323 3.03409 4.77921 2.97107L5.26902 2.44939L5.48593 2.19031L5.45795 2.71198V6.23415C5.45795 6.40921 5.60489 6.55626 5.78682 6.55626ZM3.76811 9.35369H7.79852C8.55772 9.35369 8.94957 8.96156 8.94957 8.21231V4.77066C8.94957 4.02141 8.55772 3.62928 7.79852 3.62928H6.85389V4.32602H7.75304C8.07141 4.32602 8.25334 4.49407 8.25334 4.83018V8.14929C8.25334 8.4854 8.07141 8.65346 7.75304 8.65346H3.81359C3.49172 8.65346 3.31329 8.4854 3.31329 8.14929V4.83018C3.31329 4.49407 3.49172 4.32602 3.81359 4.32602H4.72323V3.62928H3.76811C3.01241 3.62928 2.61707 4.01791 2.61707 4.77066V8.21231C2.61707 8.96156 3.01241 9.35369 3.76811 9.35369Z" fill="#B7B7B7"/>
<path d="M20.5592 8.50946C20.7816 8.50946 20.9617 8.32888 20.9617 8.124V5.95016H23.1154C23.3307 5.95016 23.5143 5.77306 23.5143 5.55429C23.5143 5.33899 23.3307 5.15841 23.1154 5.15841H20.9617V2.98458C20.9617 2.77622 20.7816 2.59912 20.5592 2.59912C20.3403 2.59912 20.1567 2.77622 20.1567 2.98458V5.15841H18.003C17.7947 5.15841 17.604 5.33899 17.604 5.55429C17.604 5.77306 17.7947 5.95016 18.003 5.95016H20.1567V8.124C20.1567 8.32888 20.3403 8.50946 20.5592 8.50946Z" fill="#B7B7B7"/>
<path d="M33.5313 7.67978H34.1264V8.20832C34.1264 8.95737 34.5219 9.34939 35.278 9.34939H38.8272C39.5832 9.34939 39.9788 8.95737 39.9788 8.20832V4.63458C39.9788 3.88553 39.5832 3.4935 38.8272 3.4935H38.2321V2.96847C38.2321 2.21942 37.8366 1.82739 37.0806 1.82739H33.5313C32.7718 1.82739 32.3798 2.21942 32.3798 2.96847V6.5387C32.3798 7.29125 32.7718 7.67978 33.5313 7.67978ZM33.5768 6.98323C33.2548 6.98323 33.0763 6.81522 33.0763 6.4757V3.03147C33.0763 2.69195 33.2548 2.52744 33.5768 2.52744H37.0351C37.3536 2.52744 37.5356 2.69195 37.5356 3.03147V3.4935H35.278C34.5219 3.4935 34.1264 3.88553 34.1264 4.63458V6.98323H33.5768ZM35.3235 8.64934C35.0014 8.64934 34.8264 8.48133 34.8264 8.14531V4.69758C34.8264 4.36156 35.0014 4.19355 35.3235 4.19355H38.7817C39.1037 4.19355 39.2822 4.36156 39.2822 4.69758V8.14531C39.2822 8.48133 39.1037 8.64934 38.7817 8.64934H35.3235Z" fill="#B7B7B7"/>
</g>
<defs>
<clipPath id="clip0_81_716">
<rect width="40.528" height="10.132" fill="white" transform="translate(0.717285 0.488281)"/>
</clipPath>
</defs>
</svg>
