<svg width="7" height="8" viewBox="0 0 7 8" fill="none" xmlns="http://www.w3.org/2000/svg">
<path d="M3.57455 7.35359C3.63743 7.35359 3.73174 7.33243 3.81907 7.28306C5.8311 6.1792 6.52972 5.66783 6.52972 4.38411V1.72145C6.52972 1.29825 6.36554 1.1466 6.01623 0.994952C5.6285 0.829198 4.32557 0.370726 3.94482 0.240238C3.82955 0.201445 3.69332 0.176758 3.57455 0.176758C3.45579 0.176758 3.31956 0.208498 3.20428 0.240238C2.82353 0.349566 1.52061 0.832724 1.13287 0.994952C0.783561 1.14307 0.619385 1.29825 0.619385 1.72145V4.38411C0.619385 5.66783 1.3215 6.17215 3.32654 7.28306C3.41736 7.33243 3.51168 7.35359 3.57455 7.35359ZM3.76318 0.889151C4.22078 1.07254 5.21631 1.42874 5.74028 1.61565C5.83809 1.65445 5.86254 1.70735 5.86254 1.83431V4.25362C5.86254 5.28695 5.34905 5.56556 3.77366 6.52482C3.67585 6.58477 3.62695 6.60593 3.57805 6.60593V0.850358C3.62695 0.850358 3.67935 0.860938 3.76318 0.889151Z" fill="#B7B7B7"/>
</svg>
