<svg width="12" height="13" viewBox="0 0 12 13" fill="none" xmlns="http://www.w3.org/2000/svg">
<path d="M8.77088 2.07675V1.16675C8.77088 0.927581 8.57255 0.729248 8.33338 0.729248C8.09421 0.729248 7.89588 0.927581 7.89588 1.16675V2.04175H4.10421V1.16675C4.10421 0.927581 3.90588 0.729248 3.66671 0.729248C3.42755 0.729248 3.22921 0.927581 3.22921 1.16675V2.07675C1.65421 2.22258 0.890052 3.16175 0.773386 4.55591C0.761719 4.72508 0.901719 4.86508 1.06505 4.86508H10.935C11.1042 4.86508 11.2442 4.71925 11.2267 4.55591C11.11 3.16175 10.3459 2.22258 8.77088 2.07675Z" fill="#D26A09"/>
<path opacity="0.4" d="M10.6667 5.73999C10.9875 5.73999 11.25 6.00249 11.25 6.32332V9.91666C11.25 11.6667 10.375 12.8333 8.33333 12.8333H3.66667C1.625 12.8333 0.75 11.6667 0.75 9.91666V6.32332C0.75 6.00249 1.0125 5.73999 1.33333 5.73999H10.6667Z" fill="#D26A09"/>
</svg>
