<svg width="14" height="14" viewBox="0 0 14 14" fill="none" xmlns="http://www.w3.org/2000/svg">
<path d="M12.8333 12.8333H1.16663C0.927459 12.8333 0.729126 12.6349 0.729126 12.3958C0.729126 12.1566 0.927459 11.9583 1.16663 11.9583H12.8333C13.0725 11.9583 13.2708 12.1566 13.2708 12.3958C13.2708 12.6349 13.0725 12.8333 12.8333 12.8333Z" fill="#D26A09"/>
<path d="M5.6875 2.33341V12.8334H8.3125V2.33341C8.3125 1.69175 8.05 1.16675 7.2625 1.16675H6.7375C5.95 1.16675 5.6875 1.69175 5.6875 2.33341Z" fill="#D26A09"/>
<path opacity="0.4" d="M1.75 5.83341V12.8334H4.08333V5.83341C4.08333 5.19175 3.85 4.66675 3.15 4.66675H2.68333C1.98333 4.66675 1.75 5.19175 1.75 5.83341Z" fill="#D26A09"/>
<path opacity="0.4" d="M9.91663 8.74992V12.8333H12.25V8.74992C12.25 8.10825 12.0166 7.58325 11.3166 7.58325H10.85C10.15 7.58325 9.91663 8.10825 9.91663 8.74992Z" fill="#D26A09"/>
</svg>
