<svg width="12" height="12" viewBox="0 0 12 12" fill="none" xmlns="http://www.w3.org/2000/svg">
<path d="M3.58496 5.56258H8.54329V0.172581C8.85829 0.172581 9.14996 0.207581 9.41829 0.271748V2.66341H11.7458C11.8041 2.93758 11.8333 3.22925 11.8333 3.53841H9.41829V5.56258H11.8333V6.43758H9.41829V8.49675H11.8333C11.8275 8.80592 11.7983 9.09758 11.74 9.37175H9.41829V11.7284C9.14996 11.7926 8.85829 11.8276 8.54329 11.8276V6.43758H3.58496V11.8334H3.55579C3.25829 11.8334 2.97246 11.8101 2.70996 11.7576V9.36008C2.68663 9.36592 2.66329 9.37175 2.63996 9.37175H0.259959C0.195793 9.09758 0.166626 8.80592 0.166626 8.49675H2.63996C2.66329 8.49675 2.68663 8.50842 2.70996 8.51425V6.43758H0.166626V5.56258H2.70996V3.53841H0.166626V3.53258C0.166626 3.22341 0.195793 2.93175 0.254126 2.66341H2.69246C2.69829 2.66341 2.70413 2.66925 2.70996 2.66925V0.242581C2.97246 0.190081 3.25829 0.166748 3.55579 0.166748H3.58496V5.56258Z" fill="#D26A09"/>
</svg>
